<?xml version="1.0" encoding="UTF-8" standalone="no"?>
<!-- Created with Inkscape (http://www.inkscape.org/) -->
<svg id="svg12145" xmlns:rdf="http://www.w3.org/1999/02/22-rdf-syntax-ns#" xmlns="http://www.w3.org/2000/svg" height="53.531" width="53" version="1.1" xmlns:cc="http://creativecommons.org/ns#" xmlns:xlink="http://www.w3.org/1999/xlink" xmlns:dc="http://purl.org/dc/elements/1.1/">
 <defs id="defs12147">
  <linearGradient id="linearGradient3532" y2="571.91" gradientUnits="userSpaceOnUse" y1="571.91" gradientTransform="matrix(0.2087115,0,0,0.2080024,309.2826,408.16259)" x2="352.27" x1="275.73">
   <stop id="stop3250" stop-color="#d8d8d8" offset="0"/>
   <stop id="stop3252" stop-color="#b1b1b1" offset="1"/>
  </linearGradient>
  <linearGradient id="linearGradient3536" y2="535.99" gradientUnits="userSpaceOnUse" y1="520.33" gradientTransform="matrix(0.2087115,0,0,0.2080024,282.55261,440.92403)" x2="355.82" x1="332.92">
   <stop id="stop3264" stop-color="#656565" offset="0"/>
   <stop id="stop3266" stop-color="#939393" offset="1"/>
  </linearGradient>
  <linearGradient id="linearGradient3539" y2="538.13" gradientUnits="userSpaceOnUse" y1="522.48" gradientTransform="matrix(-0.2087115,0,0,0.2080024,467.43777,440.92403)" x2="358.68" x1="338.63">
   <stop id="stop3278" stop-color="#d6d6d6" offset="0"/>
   <stop id="stop3280" stop-color="#939393" offset="1"/>
  </linearGradient>
  <linearGradient id="linearGradient3543" y2="321.37" gradientUnits="userSpaceOnUse" y1="333.99" gradientTransform="matrix(0.2087115,0,0,0.2080024,282.55261,440.92403)" x2="526.08" x1="529.11">
   <stop id="stop3298" stop-color="#d6d6d6" offset="0"/>
   <stop id="stop3300" stop-color="#656565" offset="1"/>
  </linearGradient>
 </defs>
 <metadata id="metadata12150">
  <rdf:RDF>
   <cc:Work rdf:about="">
    <dc:format>image/svg+xml</dc:format>
    <dc:type rdf:resource="http://purl.org/dc/dcmitype/StillImage"/>
    <dc:title/>
   </cc:Work>
  </rdf:RDF>
 </metadata>
 <g id="layer1" transform="translate(-348.5,-505.59375)">
  <rect id="rect3358" fill-rule="evenodd" rx="4.7705" ry="4.0115" height="52.044" width="51.494" y="506.34" x="349.25" fill="#656565"/>
  <rect id="rect3360" fill-rule="evenodd" height="34.564" width="11.279" y="510.2" x="389.44" fill="#d6d6d6"/>
  <path id="path3362" d="m391.6,513.22,9.0939-2.9715c-0.3613-2.8568-2.3291-3.8457-5.0687-3.9372-3.6454,0.10572-7.2028,0.26014-9.0939,1.3372l5.0687,5.5715z" fill-rule="evenodd" fill="url(#linearGradient3543)"/>
  <rect id="rect3364" fill-rule="evenodd" rx="0" ry="0" height="12.975" width="33.469" y="545.4" x="358.35" fill="#929292"/>
  <path id="path3366" d="m389.9,542.35,10.805,1.1556,0.0395,10.506c-0.006,2.7094-2.1668,4.2661-4.4011,4.3599l-4.8096-0.0525-5.3234-12.344,3.6895-3.6245z" fill-rule="evenodd" fill="url(#linearGradient3539)"/>
  <path id="path3368" d="m356.76,542.25-7.4845,1.2607-0.0395,10.506c0.006,2.7094,2.1668,4.2661,4.4011,4.3599l4.8096-0.0525,1.6866-12.292-3.3733-3.782z" fill-rule="evenodd" fill="url(#linearGradient3536)"/>
  <rect id="rect3370" fill-rule="evenodd" rx="4.7705" ry="4.7543" height="40.245" width="36.535" y="507" x="356.02" fill="#f1f1f1"/>
  <rect id="rect3372" fill-rule="evenodd" rx="4.7705" ry="4.7543" height="40.245" width="35.481" y="507" x="356.02" fill="url(#linearGradient3532)"/>
  <text id="text3374" style="writing-mode:lr-tb;text-anchor:start;text-align:start;" line-height="100%" font-weight="normal" font-size="12px" font-style="normal" font-stretch="normal" font-variant="normal" y="525.31781" x="359.63434" font-family="Arial" xml:space="preserve" fill="#000000"><tspan id="tspan3376" y="525.31781" x="359.63434">{</tspan></text>
  <text id="left square bracket" style="writing-mode:lr-tb;text-anchor:start;text-align:start;" line-height="100%" font-weight="normal" font-size="12px" font-style="normal" font-stretch="normal" font-variant="normal" y="539.39209" x="360.4856" font-family="Arial" xml:space="preserve" fill="#000000"><tspan id="tspan4083" y="539.39209" x="360.4856">[</tspan></text>
  <rect id="rect3378" stroke-linejoin="miter" stroke-dasharray="none" stroke-dashoffset="0" rx="4.7706" ry="4.0115" height="52.044" width="51.494" stroke="#000" stroke-linecap="butt" stroke-miterlimit="4" y="506.34" x="349.25" stroke-width="1.5" fill="none"/>
 </g>
</svg>
