<?xml version="1.0" encoding="UTF-8" standalone="no"?>
<!-- Created with Inkscape (http://www.inkscape.org/) -->
<svg id="svg9666" xmlns:rdf="http://www.w3.org/1999/02/22-rdf-syntax-ns#" xmlns="http://www.w3.org/2000/svg" height="53.531" width="64.812" version="1.1" xmlns:cc="http://creativecommons.org/ns#" xmlns:xlink="http://www.w3.org/1999/xlink" xmlns:dc="http://purl.org/dc/elements/1.1/">
 <defs id="defs9668">
  <linearGradient id="linearGradient7499" y2="571.91" gradientUnits="userSpaceOnUse" y1="571.91" gradientTransform="matrix(0.2688275,0,0,0.2080024,290.25703,408.1626)" x2="352.27" x1="275.73">
   <stop id="stop3250" stop-color="#d8d8d8" offset="0"/>
   <stop id="stop3252" stop-color="#b1b1b1" offset="1"/>
  </linearGradient>
  <linearGradient id="linearGradient7497" y2="535.99" gradientUnits="userSpaceOnUse" y1="520.33" gradientTransform="matrix(0.2087115,0,0,0.2080024,276.27565,440.92404)" x2="355.82" x1="332.92">
   <stop id="stop3264" stop-color="#656565" offset="0"/>
   <stop id="stop3266" stop-color="#939393" offset="1"/>
  </linearGradient>
  <linearGradient id="linearGradient7495" y2="538.13" gradientUnits="userSpaceOnUse" y1="522.48" gradientTransform="matrix(-0.2087115,0,0,0.2080024,473.41844,440.92404)" x2="358.68" x1="338.63">
   <stop id="stop3278" stop-color="#d6d6d6" offset="0"/>
   <stop id="stop3280" stop-color="#939393" offset="1"/>
  </linearGradient>
  <linearGradient id="linearGradient7493" y2="321.37" gradientUnits="userSpaceOnUse" y1="333.99" gradientTransform="matrix(0.2087115,0,0,0.2080024,288.53326,441.91389)" x2="526.08" x1="529.11">
   <stop id="stop3298" stop-color="#d6d6d6" offset="0"/>
   <stop id="stop3300" stop-color="#656565" offset="1"/>
  </linearGradient>
 </defs>
 <metadata id="metadata9671">
  <rdf:RDF>
   <cc:Work rdf:about="">
    <dc:format>image/svg+xml</dc:format>
    <dc:type rdf:resource="http://purl.org/dc/dcmitype/StillImage"/>
    <dc:title/>
   </cc:Work>
  </rdf:RDF>
 </metadata>
 <g id="layer1" transform="translate(-342.59375,-505.59375)">
  <rect id="rect7471" fill-rule="evenodd" rx="4.7705" ry="4.0115" height="52.044" width="61.714" y="506.34" x="343.69" fill="#656565"/>
  <rect id="rect7473" fill-rule="evenodd" height="36.332" width="11.279" y="510.44" x="395.42" fill="#d6d6d6"/>
  <path id="path7475" d="m397.59,514.21,9.0939-2.9715c-0.36125-2.8568-2.3291-3.8457-5.0687-3.9372-3.6454,0.10572-7.2028,0.26014-9.0939,1.3372l5.0687,5.5715z" fill-rule="evenodd" fill="url(#linearGradient7493)"/>
  <rect id="rect7477" fill-rule="evenodd" rx="0" ry="0" height="12.975" width="51.684" y="545.4" x="351.35" fill="#929292"/>
  <path id="path7479" d="m395.89,542.35,10.805,1.1556,0.0395,10.506c-0.006,2.7094-2.1668,4.2661-4.4011,4.3599l-4.8096-0.0525-5.3235-12.344,3.6895-3.6245z" fill-rule="evenodd" fill="url(#linearGradient7495)"/>
  <path id="path7481" d="m350.49,542.25-7.4845,1.2607-0.0395,10.506c0.006,2.7094,2.1668,4.2661,4.4011,4.3599l4.8096-0.0525,1.6866-12.292-3.3733-3.782z" fill-rule="evenodd" fill="url(#linearGradient7497)"/>
  <rect id="rect7483" fill-rule="evenodd" rx="4.7705" ry="4.7543" height="40.245" width="30.222" y="507" x="367.25" fill="#f1f1f1"/>
  <rect id="rect7485" fill-rule="evenodd" rx="4.7705" ry="4.7543" height="40.245" width="45.701" y="507" x="350.46" fill="url(#linearGradient7499)"/>
  <rect id="rect7491" stroke-linejoin="miter" stroke-dasharray="none" stroke-dashoffset="0" rx="4.7705" ry="4.0115" height="52.044" width="63.334" stroke="#000" stroke-linecap="butt" stroke-miterlimit="4" y="506.34" x="343.33" stroke-width="1.5" fill="none"/>
  <text id="text7573" style="writing-mode:lr-tb;text-anchor:start;text-align:start;" font-weight="normal" xml:space="preserve" transform="scale(1.0017033,0.9982996)" font-style="normal" font-stretch="normal" font-size="10px" font-variant="normal" y="533.70343" x="358.87567" font-family="Arial" line-height="100%" fill="#000000"><tspan id="tspan7575" x="358.87567" y="533.70343">Ctrl</tspan></text>
 </g>
</svg>
