<?xml version="1.0" encoding="utf-8"?>
<!-- Generator: Adobe Illustrator 26.0.2, SVG Export Plug-In . SVG Version: 6.00 Build 0)  -->
<svg version="1.1"
	 id="svg6909" xmlns:cc="http://creativecommons.org/ns#" xmlns:dc="http://purl.org/dc/elements/1.1/" xmlns:rdf="http://www.w3.org/1999/02/22-rdf-syntax-ns#"
	 xmlns="http://www.w3.org/2000/svg" xmlns:xlink="http://www.w3.org/1999/xlink" x="0px" y="0px" viewBox="0 0 64.8 53.5"
	 style="enable-background:new 0 0 64.8 53.5;" xml:space="preserve">
<style type="text/css">
	.st0{fill-rule:evenodd;clip-rule:evenodd;fill:#656565;}
	.st1{fill-rule:evenodd;clip-rule:evenodd;fill:#D6D6D6;}
	.st2{fill-rule:evenodd;clip-rule:evenodd;fill:url(#path7361_00000058586113873184160710000011769953599504736425_);}
	.st3{fill-rule:evenodd;clip-rule:evenodd;fill:#929292;}
	.st4{fill-rule:evenodd;clip-rule:evenodd;fill:url(#path7365_00000127752649911302718760000007215086865089172367_);}
	.st5{fill-rule:evenodd;clip-rule:evenodd;fill:url(#path7367_00000066486173020442362090000006754706128279652543_);}
	.st6{fill-rule:evenodd;clip-rule:evenodd;fill:#F1F1F1;}
	.st7{fill-rule:evenodd;clip-rule:evenodd;fill:url(#rect7371_00000085231020489725110740000003627628577577541560_);}
	.st8{fill:none;stroke:#000000;stroke-width:1.5;}
</style>
<g id="layer1" transform="translate(-342.59375,-505.59375)">
	<path id="rect7357" class="st0" d="M348.5,506.3h52.2c2.6,0,4.8,1.8,4.8,4v44c0,2.2-2.1,4-4.8,4h-52.2c-2.6,0-4.8-1.8-4.8-4v-44
		C343.7,508.1,345.8,506.3,348.5,506.3z"/>
	<rect id="rect7359" x="395.4" y="510.4" class="st1" width="11.3" height="36.3"/>
	
		<linearGradient id="path7361_00000179635296936649314660000015494855844734111890_" gradientUnits="userSpaceOnUse" x1="2646.8" y1="-1568.5065" x2="2643.77" y2="-1555.8865" gradientTransform="matrix(0.2087 0 0 -0.208 -152.5017 184.9039)">
		<stop  offset="0" style="stop-color:#D6D6D6"/>
		<stop  offset="1" style="stop-color:#656565"/>
	</linearGradient>
	
		<path id="path7361" style="fill-rule:evenodd;clip-rule:evenodd;fill:url(#path7361_00000179635296936649314660000015494855844734111890_);" d="
		M397.6,514.2l9.1-3c-0.4-2.9-2.3-3.8-5.1-3.9c-3.6,0.1-7.2,0.3-9.1,1.3L397.6,514.2z"/>
	<rect id="rect7363" x="351.4" y="545.4" class="st3" width="51.7" height="13"/>
	
		<linearGradient id="path7365_00000165917146935750630950000007795278156358948796_" gradientUnits="userSpaceOnUse" x1="-2019.8722" y1="-1753.6805" x2="-1999.8223" y2="-1769.3306" gradientTransform="matrix(-0.2087 0 0 -0.208 -19.5466 183.914)">
		<stop  offset="0" style="stop-color:#D6D6D6"/>
		<stop  offset="1" style="stop-color:#939393"/>
	</linearGradient>
	
		<path id="path7365" style="fill-rule:evenodd;clip-rule:evenodd;fill:url(#path7365_00000165917146935750630950000007795278156358948796_);" d="
		M395.9,542.3l10.8,1.2l0,10.5c0,2.7-2.2,4.3-4.4,4.4l-4.8-0.1l-5.3-12.3L395.9,542.3L395.9,542.3z"/>
	
		<linearGradient id="path7367_00000065772448536115367260000007801146116676396973_" gradientUnits="userSpaceOnUse" x1="2447.2642" y1="-1754.1685" x2="2470.1641" y2="-1769.8284" gradientTransform="matrix(0.2087 0 0 -0.208 -164.7594 183.914)">
		<stop  offset="0" style="stop-color:#656565"/>
		<stop  offset="1" style="stop-color:#939393"/>
	</linearGradient>
	
		<path id="path7367" style="fill-rule:evenodd;clip-rule:evenodd;fill:url(#path7367_00000065772448536115367260000007801146116676396973_);" d="
		M350.5,542.2l-7.5,1.3l0,10.5c0,2.7,2.2,4.3,4.4,4.4l4.8-0.1l1.7-12.3L350.5,542.2L350.5,542.2z"/>
	<path id="rect7369" class="st6" d="M372,507h20.7c2.6,0,4.8,2.1,4.8,4.8v30.7c0,2.6-2.1,4.8-4.8,4.8H372c-2.6,0-4.8-2.1-4.8-4.8
		v-30.7C367.2,509.1,369.4,507,372,507z"/>
	
		<linearGradient id="rect7371_00000018214353062099104430000018181415541643954359_" gradientUnits="userSpaceOnUse" x1="1888.4972" y1="-1807.5267" x2="1965.0372" y2="-1807.5267" gradientTransform="matrix(0.2688 0 0 -0.208 -143.2991 151.1526)">
		<stop  offset="0" style="stop-color:#D8D8D8"/>
		<stop  offset="1" style="stop-color:#B1B1B1"/>
	</linearGradient>
	
		<path id="rect7371" style="fill-rule:evenodd;clip-rule:evenodd;fill:url(#rect7371_00000018214353062099104430000018181415541643954359_);" d="
		M355.2,507h36.2c2.6,0,4.8,2.1,4.8,4.8v30.7c0,2.6-2.1,4.8-4.8,4.8h-36.2c-2.6,0-4.8-2.1-4.8-4.8v-30.7
		C350.5,509.1,352.6,507,355.2,507z"/>
	<path id="rect7377" class="st8" d="M348.1,506.3h53.8c2.6,0,4.8,1.8,4.8,4v44c0,2.2-2.1,4-4.8,4h-53.8c-2.6,0-4.8-1.8-4.8-4v-44
		C343.3,508.1,345.5,506.3,348.1,506.3z"/>
	<g>
		<polygon points="361.3,534.7 361.3,530 355.5,531 355.5,534.9 		"/>
		<polygon points="362.3,534.6 370.2,534.3 370.2,528.4 362.3,529.8 		"/>
		<polygon points="361.3,536 355.5,536.3 355.4,540.6 361.3,541.2 		"/>
		<polygon points="362.3,535.9 362.3,541.3 370.2,542 370.2,535.4 		"/>
	</g>
</g>
</svg>
