<?xml version="1.0" encoding="UTF-8" standalone="no"?>
<!-- Created with Inkscape (http://www.inkscape.org/) -->
<svg id="svg11925" xmlns:rdf="http://www.w3.org/1999/02/22-rdf-syntax-ns#" xmlns="http://www.w3.org/2000/svg" height="53.531" width="108.69" version="1.1" xmlns:cc="http://creativecommons.org/ns#" xmlns:dc="http://purl.org/dc/elements/1.1/">
 <defs id="defs11927">
  <linearGradient id="linearGradient7282" x1="275.73" gradientUnits="userSpaceOnUse" x2="352.27" gradientTransform="matrix(0.53404,0,0,0.2080024,208.96218,408.1626)" y1="571.91" y2="571.91">
   <stop id="stop3250" stop-color="#d8d8d8" offset="0"/>
   <stop id="stop3252" stop-color="#b1b1b1" offset="1"/>
  </linearGradient>
  <linearGradient id="linearGradient7286" x1="332.92" gradientUnits="userSpaceOnUse" x2="355.82" gradientTransform="matrix(0.2087115,0,0,0.2080024,255.03749,440.94084)" y1="520.33" y2="535.99">
   <stop id="stop3264" stop-color="#656565" offset="0"/>
   <stop id="stop3266" stop-color="#939393" offset="1"/>
  </linearGradient>
  <linearGradient id="linearGradient7289" x1="338.63" gradientUnits="userSpaceOnUse" x2="358.68" gradientTransform="matrix(-0.2087115,0,0,0.2080024,495.2801,440.92404)" y1="522.48" y2="538.13">
   <stop id="stop3278" stop-color="#d6d6d6" offset="0"/>
   <stop id="stop3280" stop-color="#939393" offset="1"/>
  </linearGradient>
  <linearGradient id="linearGradient7293" x1="529.11" gradientUnits="userSpaceOnUse" x2="526.08" gradientTransform="matrix(0.2087115,0,0,0.2080024,310.39495,440.92404)" y1="333.99" y2="321.37">
   <stop id="stop3298" stop-color="#d6d6d6" offset="0"/>
   <stop id="stop3300" stop-color="#656565" offset="1"/>
  </linearGradient>
 </defs>
 <metadata id="metadata11930">
  <rdf:RDF>
   <cc:Work rdf:about="">
    <dc:format>image/svg+xml</dc:format>
    <dc:type rdf:resource="http://purl.org/dc/dcmitype/StillImage"/>
    <dc:title/>
   </cc:Work>
  </rdf:RDF>
 </metadata>
 <g id="layer1" transform="translate(-320.65625,-505.59375)">
  <rect id="rect7168" fill-rule="evenodd" rx="4.7706" ry="4.0115" height="52.044" width="106.8" y="506.34" x="321.79" fill="#656565"/>
  <rect id="rect7170" fill-rule="evenodd" height="34.564" width="11.279" y="510.2" x="417.29" fill="#d6d6d6"/>
  <path id="path7172" fill-rule="evenodd" fill="url(#linearGradient7293)" d="m419.45,513.22,9.0939-2.9715c-0.3613-2.8568-2.3291-3.8457-5.0687-3.9372-3.6454,0.10572-7.2028,0.26014-9.0939,1.3372l5.0687,5.5715z"/>
  <rect id="rect7174" fill-rule="evenodd" rx="0" ry="0" height="12.975" width="90.038" y="545.4" x="329.62" fill="#929292"/>
  <path id="path7176" fill-rule="evenodd" fill="url(#linearGradient7289)" d="m417.75,542.35,10.805,1.1556,0.0395,10.506c-0.006,2.7094-2.1668,4.2661-4.4011,4.3599l-4.8096-0.0525-5.3234-12.344,3.6895-3.6245z"/>
  <path id="path7178" fill-rule="evenodd" fill="url(#linearGradient7286)" d="m329.25,542.27-7.4845,1.2607-0.0395,10.506c0.006,2.7094,2.1668,4.2661,4.4011,4.3599l4.8096-0.0525,1.6866-12.292-3.3733-3.782z"/>
  <rect id="rect7180" fill-rule="evenodd" rx="4.7705" ry="4.7543" height="40.245" width="36.535" y="507" x="383.87" fill="#f1f1f1"/>
  <rect id="rect7182" fill-rule="evenodd" rx="4.7705" ry="4.7543" height="40.245" width="90.787" y="507" x="328.56" fill="url(#linearGradient7282)"/>
  <text id="backspace" style="writing-mode:lr-tb;text-anchor:start;text-align:start;" line-height="100%" font-family="Arial" xml:space="preserve" font-size="10px" font-stretch="normal" font-variant="normal" y="535.9505" x="352.34421" font-weight="normal" font-style="normal" fill="#000000"><tspan id="tspan4578" y="535.9505" x="352.34421">Backspace</tspan></text>
  <path id="path8179" d="m367.09,519.15-28.494,0" stroke-dashoffset="0" stroke="#000" stroke-miterlimit="4" stroke-dasharray="none" stroke-width="1" fill="none"/>
  <path id="path8183" d="m138.45,1116.9,5.7776-3.3357,0,6.6713z" transform="translate(199.70901,-597.72728)" fill="#000" fill-rule="evenodd"/>
 </g>
</svg>
