<?xml version="1.0" encoding="UTF-8" standalone="no"?>
<!-- Created with Inkscape (http://www.inkscape.org/) -->
<svg id="svg7014" xmlns:rdf="http://www.w3.org/1999/02/22-rdf-syntax-ns#" xmlns="http://www.w3.org/2000/svg" height="53.544" width="90.875" version="1.1" xmlns:cc="http://creativecommons.org/ns#" xmlns:xlink="http://www.w3.org/1999/xlink" xmlns:dc="http://purl.org/dc/elements/1.1/">
 <defs id="defs7016">
  <linearGradient id="linearGradient7260" x1="338.63" xlink:href="#linearGradient3276" gradientUnits="userSpaceOnUse" y1="522.48" gradientTransform="matrix(-0.2087115,0,0,0.2080024,486.86287,441.40879)" x2="358.68" y2="538.13"/>
  <linearGradient id="linearGradient3276">
   <stop id="stop3278" stop-color="#d6d6d6" offset="0"/>
   <stop id="stop3280" stop-color="#939393" offset="1"/>
  </linearGradient>
  <linearGradient id="linearGradient7258" x1="529.11" xlink:href="#linearGradient3296" gradientUnits="userSpaceOnUse" y1="333.99" gradientTransform="matrix(0.2087115,0,0,0.2080024,286.34064,440.92402)" x2="526.08" y2="321.37"/>
  <linearGradient id="linearGradient3296">
   <stop id="stop3298" stop-color="#d6d6d6" offset="0"/>
   <stop id="stop3300" stop-color="#656565" offset="1"/>
  </linearGradient>
  <linearGradient id="linearGradient7102" x1="332.92" gradientUnits="userSpaceOnUse" y1="520.33" gradientTransform="matrix(0.2087115,0,0,0.2080024,263.61221,440.92402)" x2="355.82" y2="535.99">
   <stop id="stop3264" stop-color="#656565" offset="0"/>
   <stop id="stop3266" stop-color="#939393" offset="1"/>
  </linearGradient>
  <linearGradient id="linearGradient7270" x1="338.63" xlink:href="#linearGradient3276" gradientUnits="userSpaceOnUse" y1="522.48" gradientTransform="matrix(-0.1035438,0,0,0.1080024,452.7745,497.38936)" x2="358.68" y2="538.13"/>
  <linearGradient id="linearGradient7268" x1="529.11" xlink:href="#linearGradient3296" gradientUnits="userSpaceOnUse" y1="333.99" gradientTransform="matrix(0.20774911,0,0,0.2080024,302.06357,440.92402)" x2="526.08" y2="321.37"/>
  <linearGradient id="linearGradient11544" x1="275.73" gradientUnits="userSpaceOnUse" y1="571.91" gradientTransform="matrix(0.43820747,0,0,0.2080024,238.94691,408.16258)" x2="352.27" y2="571.91">
   <stop id="stop3250" stop-color="#d8d8d8" offset="0"/>
   <stop id="stop3252" stop-color="#b1b1b1" offset="1"/>
  </linearGradient>
 </defs>
 <metadata id="metadata7019">
  <rdf:RDF>
   <cc:Work rdf:about="">
    <dc:format>image/svg+xml</dc:format>
    <dc:type rdf:resource="http://purl.org/dc/dcmitype/StillImage"/>
    <dc:title/>
   </cc:Work>
  </rdf:RDF>
 </metadata>
 <g id="layer1" transform="translate(-329.5625,-505.59012)">
  <rect id="rect7076" fill-rule="evenodd" rx="4.7705" ry="4.0115" height="52.044" width="88.87" y="506.34" x="330.31" fill="#656565"/>
  <rect id="rect7082" fill-rule="evenodd" rx="0" ry="0" height="11.459" width="78.169" y="546.91" x="339.41" fill="#929292"/>
  <rect id="rect7262" fill-rule="evenodd" height="40.877" width="8.7526" y="510.2" x="410.92" fill="#d6d6d6"/>
  <path id="path7264" fill-rule="evenodd" fill="url(#linearGradient7268)" d="m410.61,513.22,9.0519-2.9715c-0.35958-2.8568-2.3183-3.8457-5.0453-3.9372-3.6286,0.10572-7.1695,0.26014-9.0519,1.3372l5.0453,5.5715z"/>
  <path id="path7266" fill-rule="evenodd" fill="url(#linearGradient7270)" d="m414.31,550.05,5.3605,0.60004,0.0196,5.455c-0.003,1.4068-1.075,2.2151-2.1834,2.2638l-2.3861-0.0273-2.641-6.4096,1.8304-1.882z"/>
  <path id="path7086" fill-rule="evenodd" fill="url(#linearGradient7102)" d="m337.82,542.25-7.4845,1.2607-0.0395,10.506c0.006,2.7094,2.1668,4.2661,4.4011,4.3599l4.8096-0.0525,1.6866-12.292-3.3733-3.782z"/>
  <rect id="rect7252" fill-rule="evenodd" height="34.564" width="11.279" y="510.2" x="393.23" fill="#d6d6d6"/>
  <path id="path7254" fill-rule="evenodd" fill="url(#linearGradient7258)" d="m395.39,513.22,9.0939-2.9715c-0.36125-2.8568-2.3291-3.8457-5.0687-3.9372-3.6454,0.10572-7.2028,0.26014-9.0939,1.3372l5.0687,5.5715z"/>
  <path id="path7256" fill-rule="evenodd" fill="url(#linearGradient7260)" d="m409.33,542.84,10.805,1.1556,0.0395,10.506c-0.006,2.7094-2.1668,4.2661-4.4011,4.3599l-4.8096-0.0525-5.3235-12.344,3.6895-3.6245z"/>
  <rect id="rect7088" fill-rule="evenodd" rx="6.3376" ry="4.7543" height="40.245" width="75.58" y="507" x="337.08" fill="#f1f1f1"/>
  <rect id="rect7090" fill-rule="evenodd" rx="6.4262" ry="4.7543" height="40.245" width="74.495" y="507" x="337.08" fill="url(#linearGradient11544)"/>
  <text id="text7565" style="writing-mode:lr-tb;text-anchor:start;text-align:start;" font-family="Arial" xml:space="preserve" transform="scale(1.0017033,0.9982996)" font-stretch="normal" line-height="100%" font-size="10px" font-variant="normal" y="533.27875" x="338.07364" font-weight="normal" font-style="normal" fill="#000000"><tspan id="tspan7567" y="533.27875" x="338.07364">Caps Lock</tspan></text>
 </g>
</svg>
