<?xml version="1.0" encoding="UTF-8" standalone="no"?>
<!-- Created with Inkscape (http://www.inkscape.org/) -->
<svg id="svg9564" xmlns:rdf="http://www.w3.org/1999/02/22-rdf-syntax-ns#" xmlns="http://www.w3.org/2000/svg" height="53.531" width="64.812" version="1.1" xmlns:cc="http://creativecommons.org/ns#" xmlns:dc="http://purl.org/dc/elements/1.1/">
 <defs id="defs9566">
  <linearGradient id="linearGradient7529" x1="275.73" gradientUnits="userSpaceOnUse" x2="352.27" gradientTransform="matrix(0.2688275,0,0,0.2080024,290.25701,408.1626)" y1="571.91" y2="571.91">
   <stop id="stop3250" stop-color="#d8d8d8" offset="0"/>
   <stop id="stop3252" stop-color="#b1b1b1" offset="1"/>
  </linearGradient>
  <linearGradient id="linearGradient7527" x1="332.92" gradientUnits="userSpaceOnUse" x2="355.82" gradientTransform="matrix(0.2087115,0,0,0.2080024,276.95611,440.95239)" y1="520.33" y2="535.99">
   <stop id="stop3264" stop-color="#656565" offset="0"/>
   <stop id="stop3266" stop-color="#939393" offset="1"/>
  </linearGradient>
  <linearGradient id="linearGradient7525" x1="338.63" gradientUnits="userSpaceOnUse" x2="358.68" gradientTransform="matrix(-0.2087115,0,0,0.2080024,473.41841,440.92404)" y1="522.48" y2="538.13">
   <stop id="stop3278" stop-color="#d6d6d6" offset="0"/>
   <stop id="stop3280" stop-color="#939393" offset="1"/>
  </linearGradient>
  <linearGradient id="linearGradient7523" x1="529.11" gradientUnits="userSpaceOnUse" x2="526.08" gradientTransform="matrix(0.2087115,0,0,0.2080024,288.53324,441.91389)" y1="333.99" y2="321.37">
   <stop id="stop3298" stop-color="#d6d6d6" offset="0"/>
   <stop id="stop3300" stop-color="#656565" offset="1"/>
  </linearGradient>
 </defs>
 <metadata id="metadata9569">
  <rdf:RDF>
   <cc:Work rdf:about="">
    <dc:format>image/svg+xml</dc:format>
    <dc:type rdf:resource="http://purl.org/dc/dcmitype/StillImage"/>
    <dc:title/>
   </cc:Work>
  </rdf:RDF>
 </metadata>
 <g id="layer1" transform="translate(-342.59375,-505.59375)">
  <rect id="rect7501" fill-rule="evenodd" rx="4.7705" ry="4.0115" height="52.044" width="61.714" y="506.34" x="343.69" fill="#656565"/>
  <rect id="rect7503" fill-rule="evenodd" height="36.332" width="11.279" y="510.44" x="395.42" fill="#d6d6d6"/>
  <path id="path7505" fill-rule="evenodd" fill="url(#linearGradient7523)" d="m397.59,514.21,9.0939-2.9715c-0.36125-2.8568-2.3291-3.8457-5.0687-3.9372-3.6454,0.10572-7.2028,0.26014-9.0939,1.3372l5.0687,5.5715z"/>
  <rect id="rect7507" fill-rule="evenodd" rx="0" ry="0" height="12.975" width="51.684" y="545.4" x="351.35" fill="#929292"/>
  <path id="path7509" fill-rule="evenodd" fill="url(#linearGradient7525)" d="m395.89,542.35,10.805,1.1556,0.0395,10.506c-0.006,2.7094-2.1668,4.2661-4.4011,4.3599l-4.8096-0.0525-5.3235-12.344,3.6895-3.6245z"/>
  <path id="path7511" fill-rule="evenodd" fill="url(#linearGradient7527)" d="m351.17,542.28-7.4845,1.2607-0.0395,10.506c0.006,2.7094,2.1668,4.2661,4.4011,4.3599l4.8096-0.0525,1.6866-12.292-3.3733-3.782z"/>
  <rect id="rect7513" fill-rule="evenodd" rx="4.7705" ry="4.7543" height="40.245" width="30.222" y="507" x="367.25" fill="#f1f1f1"/>
  <rect id="rect7515" fill-rule="evenodd" rx="4.7705" ry="4.7543" height="40.245" width="45.701" y="507" x="350.46" fill="url(#linearGradient7529)"/>
  <path id="text7793" d="m370.37,534.41-1.7515,0,0,1.7604-9.6555,0,0-13.167,1.7515,0,0-1.7515,1.7604,0,0-1.7515,9.6466,0,0,13.158-1.7515,0,0,1.7515m-7.4594-14.474,0,1.3158,7.4594,0,0,10.971,1.3158,0,0-12.287-8.7753,0m-1.7515,1.7515,0,1.3158,7.4594,0,0,10.971,1.3158,0,0-12.287-8.7753,0m7.0149,1.7604-8.7753,0,0,12.287,8.7753,0,0-12.287m-7.4594,10.527,0-0.43566,6.1436,0,0,0.43566-6.1436,0m0-1.7515,0-0.44455,6.1436,0,0,0.44455-6.1436,0m0-1.7604,0-0.43566,6.1436,0,0,0.43566-6.1436,0m0-1.7515,0-0.43565,6.1436,0,0,0.43565-6.1436,0m0-1.7515,0-0.44454,6.1436,0,0,0.44454-6.1436,0m0-1.7604,0-0.43565,6.1436,0,0,0.43565-6.1436,0" fill="#000"/>
 </g>
</svg>
