<?xml version="1.0" encoding="UTF-8" standalone="no"?>
<!-- Created with Inkscape (http://www.inkscape.org/) -->
<svg id="svg10428" xmlns:rdf="http://www.w3.org/1999/02/22-rdf-syntax-ns#" xmlns="http://www.w3.org/2000/svg" height="53.531" width="53" version="1.1" xmlns:cc="http://creativecommons.org/ns#" xmlns:dc="http://purl.org/dc/elements/1.1/">
 <defs id="defs10430">
  <linearGradient id="linearGradient5224" x1="275.73" gradientUnits="userSpaceOnUse" x2="352.27" gradientTransform="matrix(0.2087115,0,0,0.2080024,309.28253,408.1626)" y1="571.91" y2="571.91">
   <stop id="stop3250" stop-color="#d8d8d8" offset="0"/>
   <stop id="stop3252" stop-color="#b1b1b1" offset="1"/>
  </linearGradient>
  <linearGradient id="linearGradient5228" x1="332.92" gradientUnits="userSpaceOnUse" x2="355.82" gradientTransform="matrix(0.2087115,0,0,0.2080024,282.55254,440.92404)" y1="520.33" y2="535.99">
   <stop id="stop3264" stop-color="#656565" offset="0"/>
   <stop id="stop3266" stop-color="#939393" offset="1"/>
  </linearGradient>
  <linearGradient id="linearGradient5231" x1="338.63" gradientUnits="userSpaceOnUse" x2="358.68" gradientTransform="matrix(-0.2087115,0,0,0.2080024,467.4377,440.92404)" y1="522.48" y2="538.13">
   <stop id="stop3278" stop-color="#d6d6d6" offset="0"/>
   <stop id="stop3280" stop-color="#939393" offset="1"/>
  </linearGradient>
  <linearGradient id="linearGradient5235" x1="529.11" gradientUnits="userSpaceOnUse" x2="526.08" gradientTransform="matrix(0.2087115,0,0,0.2080024,282.55254,440.92404)" y1="333.99" y2="321.37">
   <stop id="stop3298" stop-color="#d6d6d6" offset="0"/>
   <stop id="stop3300" stop-color="#656565" offset="1"/>
  </linearGradient>
 </defs>
 <metadata id="metadata10433">
  <rdf:RDF>
   <cc:Work rdf:about="">
    <dc:format>image/svg+xml</dc:format>
    <dc:type rdf:resource="http://purl.org/dc/dcmitype/StillImage"/>
    <dc:title/>
   </cc:Work>
  </rdf:RDF>
 </metadata>
 <g id="layer1" transform="translate(-348.5,-505.59375)">
  <rect id="rect4998" fill-rule="evenodd" rx="4.7705" ry="4.0115" height="52.044" width="51.494" y="506.34" x="349.25" fill="#656565"/>
  <rect id="rect5000" fill-rule="evenodd" height="34.564" width="11.279" y="510.2" x="389.44" fill="#d6d6d6"/>
  <path id="path5002" fill-rule="evenodd" fill="url(#linearGradient5235)" d="m391.6,513.22,9.0939-2.9715c-0.36125-2.8568-2.3291-3.8457-5.0687-3.9372-3.6454,0.10572-7.2028,0.26014-9.0939,1.3372l5.0687,5.5715z"/>
  <rect id="rect5004" fill-rule="evenodd" rx="0" ry="0" height="12.975" width="33.469" y="545.4" x="358.35" fill="#929292"/>
  <path id="path5006" fill-rule="evenodd" fill="url(#linearGradient5231)" d="m389.9,542.35,10.805,1.1556,0.0395,10.506c-0.006,2.7094-2.1668,4.2661-4.4011,4.3599l-4.8096-0.0525-5.3235-12.344,3.6895-3.6245z"/>
  <path id="path5008" fill-rule="evenodd" fill="url(#linearGradient5228)" d="m356.76,542.25-7.4845,1.2607-0.0395,10.506c0.006,2.7094,2.1668,4.2661,4.4011,4.3599l4.8096-0.0525,1.6866-12.292-3.3733-3.782z"/>
  <rect id="rect5010" fill-rule="evenodd" rx="4.7705" ry="4.7543" height="40.245" width="36.535" y="507" x="356.02" fill="#f1f1f1"/>
  <rect id="rect5012" fill-rule="evenodd" rx="4.7705" ry="4.7543" height="40.245" width="35.481" y="507" x="356.02" fill="url(#linearGradient5224)"/>
  <text id="text5014" style="writing-mode:lr-tb;text-anchor:start;text-align:start;" font-family="Arial" xml:space="preserve" transform="scale(1.0017033,0.9982996)" line-height="100%" y="531.69995" font-stretch="normal" font-size="10.00112152px" font-variant="normal" x="360.15714" font-weight="normal" font-style="normal" fill="#000000"><tspan id="tspan5016" y="531.69995" x="360.15714">End</tspan></text>
  <rect id="rect11174" fill-rule="evenodd" rx="4.7705" ry="4.0115" height="52.044" width="51.494" y="506.34" x="349.25" fill="#656565"/>
  <rect id="rect11176" fill-rule="evenodd" height="34.564" width="11.279" y="510.2" x="389.44" fill="#d6d6d6"/>
  <path id="path11178" fill-rule="evenodd" fill="url(#linearGradient5235)" d="m391.6,513.22,9.0939-2.9715c-0.36125-2.8568-2.3291-3.8457-5.0687-3.9372-3.6454,0.10572-7.2028,0.26014-9.0939,1.3372l5.0687,5.5715z"/>
  <rect id="rect11180" fill-rule="evenodd" rx="0" ry="0" height="12.975" width="33.469" y="545.4" x="358.35" fill="#929292"/>
  <path id="path11182" fill-rule="evenodd" fill="url(#linearGradient5231)" d="m389.9,542.35,10.805,1.1556,0.0395,10.506c-0.006,2.7094-2.1668,4.2661-4.4011,4.3599l-4.8096-0.0525-5.3235-12.344,3.6895-3.6245z"/>
  <path id="path11184" fill-rule="evenodd" fill="url(#linearGradient5228)" d="m356.76,542.25-7.4845,1.2607-0.0395,10.506c0.006,2.7094,2.1668,4.2661,4.4011,4.3599l4.8096-0.0525,1.6866-12.292-3.3733-3.782z"/>
  <rect id="rect11186" fill-rule="evenodd" rx="4.7705" ry="4.7543" height="40.245" width="36.535" y="507" x="356.02" fill="#f1f1f1"/>
  <rect id="rect11188" fill-rule="evenodd" rx="4.7705" ry="4.7543" height="40.245" width="35.481" y="507" x="356.02" fill="url(#linearGradient5224)"/>
  <text id="text11190" style="writing-mode:lr-tb;text-anchor:start;text-align:start;" font-family="Arial" xml:space="preserve" transform="scale(1.0017033,0.9982996)" font-stretch="normal" line-height="100%" font-size="10.00112152px" font-variant="normal" y="531.69995" x="360.15714" font-weight="normal" font-style="normal" fill="#000000"><tspan id="tspan11192" y="531.69995" x="360.15714">End</tspan></text>
 </g>
</svg>
