<?xml version="1.0" encoding="UTF-8" standalone="no"?>
<!-- Created with Inkscape (http://www.inkscape.org/) -->
<svg id="svg5094" xmlns:rdf="http://www.w3.org/1999/02/22-rdf-syntax-ns#" xmlns="http://www.w3.org/2000/svg" height="53.531" width="107.81" version="1.1" xmlns:cc="http://creativecommons.org/ns#" xmlns:xlink="http://www.w3.org/1999/xlink" xmlns:dc="http://purl.org/dc/elements/1.1/">
 <defs id="defs5096">
  <linearGradient id="linearGradient7003" y2="571.91" gradientUnits="userSpaceOnUse" x2="352.27" gradientTransform="matrix(0.5259383,0,0,0.2080024,210.82934,408.1626)" y1="571.91" x1="275.73">
   <stop id="stop3250" stop-color="#d8d8d8" offset="0"/>
   <stop id="stop3252" stop-color="#b1b1b1" offset="1"/>
  </linearGradient>
  <linearGradient id="linearGradient7007" y2="535.99" gradientUnits="userSpaceOnUse" x2="355.82" gradientTransform="matrix(0.2087115,0,0,0.2080024,255.14185,440.92404)" y1="520.33" x1="332.92">
   <stop id="stop3264" stop-color="#656565" offset="0"/>
   <stop id="stop3266" stop-color="#939393" offset="1"/>
  </linearGradient>
  <linearGradient id="linearGradient7010" y2="538.13" gradientUnits="userSpaceOnUse" x2="358.68" gradientTransform="matrix(-0.2087115,0,0,0.2080024,494.66998,440.92404)" y1="522.48" x1="338.63">
   <stop id="stop3278" stop-color="#d6d6d6" offset="0"/>
   <stop id="stop3280" stop-color="#939393" offset="1"/>
  </linearGradient>
  <linearGradient id="linearGradient7014" y2="321.37" gradientUnits="userSpaceOnUse" x2="526.08" gradientTransform="matrix(0.2087115,0,0,0.2080024,309.78468,440.92404)" y1="333.99" x1="529.11">
   <stop id="stop3298" stop-color="#d6d6d6" offset="0"/>
   <stop id="stop3300" stop-color="#656565" offset="1"/>
  </linearGradient>
 </defs>
 <metadata id="metadata5099">
  <rdf:RDF>
   <cc:Work rdf:about="">
    <dc:format>image/svg+xml</dc:format>
    <dc:type rdf:resource="http://purl.org/dc/dcmitype/StillImage"/>
    <dc:title/>
   </cc:Work>
  </rdf:RDF>
 </metadata>
 <g id="layer1" transform="translate(-321.09375,-505.59375)">
  <rect id="rect6048" fill-rule="evenodd" rx="4.7705" ry="4.0115" height="52.044" width="106.14" y="506.34" x="321.84" fill="#656565"/>
  <rect id="rect6050" fill-rule="evenodd" height="34.564" width="11.279" y="510.2" x="416.68" fill="#d6d6d6"/>
  <path id="path6052" d="m418.84,513.22,9.0938-2.9715c-0.3612-2.8568-2.3291-3.8457-5.0687-3.9372-3.6454,0.10572-7.2027,0.26014-9.0939,1.3372l5.0688,5.5715z" fill-rule="evenodd" fill="url(#linearGradient7014)"/>
  <rect id="rect6054" fill-rule="evenodd" rx="0" ry="0" height="12.975" width="89.005" y="545.4" x="330.94" fill="#929292"/>
  <path id="path6056" d="m417.14,542.35,10.805,1.1556,0.04,10.506c-0.01,2.7094-2.1668,4.2661-4.4011,4.3599l-4.8095-0.0525-5.3235-12.344,3.6895-3.6245z" fill-rule="evenodd" fill="url(#linearGradient7010)"/>
  <path id="path6058" d="m329.35,542.25-7.4845,1.2607-0.04,10.506c0.01,2.7094,2.1668,4.2661,4.4011,4.3599l4.8096-0.0525,1.6866-12.292-3.3733-3.782z" fill-rule="evenodd" fill="url(#linearGradient7007)"/>
  <rect id="rect6060" fill-rule="evenodd" rx="4.7705" ry="4.7543" height="40.245" width="90.642" y="507" x="328.61" fill="#f1f1f1"/>
  <rect id="rect6062" fill-rule="evenodd" rx="4.7705" ry="4.7543" height="40.245" width="89.41" y="507" x="328.61" fill="url(#linearGradient7003)"/>
  <text id="text6539" style="writing-mode:lr-tb;text-anchor:start;text-align:start;" font-weight="normal" transform="scale(1.0017033,0.9982996)" font-style="normal" line-height="100%" font-stretch="normal" xml:space="preserve" font-size="14px" font-variant="normal" y="522.78052" x="332.08008" font-family="Arial" fill="#000000"><tspan id="tspan6541" y="522.78052" x="332.08008">0</tspan></text>
  <text id="text6559" style="writing-mode:lr-tb;text-anchor:start;text-align:start;" font-weight="normal" xml:space="preserve" transform="scale(1.0017033,0.9982996)" font-style="normal" font-stretch="normal" font-size="10.00112152px" font-variant="normal" y="542.43243" x="331.11218" font-family="Arial" line-height="100%" fill="#000000"><tspan id="tspan6561" x="331.11218" y="542.43243">Ins</tspan></text>
 </g>
</svg>
