<?xml version="1.0" encoding="UTF-8" standalone="no"?>
<!-- Created with Inkscape (http://www.inkscape.org/) -->
<svg id="svg7013" xmlns:rdf="http://www.w3.org/1999/02/22-rdf-syntax-ns#" xmlns="http://www.w3.org/2000/svg" height="53.531" width="359.12" version="1.1" xmlns:cc="http://creativecommons.org/ns#" xmlns:dc="http://purl.org/dc/elements/1.1/">
 <defs id="defs7015">
  <linearGradient id="linearGradient7415" x1="275.73" gradientUnits="userSpaceOnUse" x2="352.27" gradientTransform="matrix(1.996292,0,0,0.2080024,-243.74896,408.1626)" y1="571.91" y2="571.91">
   <stop id="stop3250" stop-color="#d8d8d8" offset="0"/>
   <stop id="stop3252" stop-color="#b1b1b1" offset="1"/>
  </linearGradient>
  <linearGradient id="linearGradient7413" x1="332.92" gradientUnits="userSpaceOnUse" x2="355.82" gradientTransform="matrix(0.2087115,0,0,0.2080024,129.84897,440.92404)" y1="520.33" y2="535.99">
   <stop id="stop3264" stop-color="#656565" offset="0"/>
   <stop id="stop3266" stop-color="#939393" offset="1"/>
  </linearGradient>
  <linearGradient id="linearGradient7411" x1="338.63" gradientUnits="userSpaceOnUse" x2="358.68" gradientTransform="matrix(-0.2087115,0,0,0.2080024,620.38268,440.20975)" y1="522.48" y2="538.13">
   <stop id="stop3278" stop-color="#d6d6d6" offset="0"/>
   <stop id="stop3280" stop-color="#939393" offset="1"/>
  </linearGradient>
  <linearGradient id="linearGradient7409" x1="529.11" gradientUnits="userSpaceOnUse" x2="526.08" gradientTransform="matrix(0.2087115,0,0,0.2080024,435.49751,441.1996)" y1="333.99" y2="321.37">
   <stop id="stop3298" stop-color="#d6d6d6" offset="0"/>
   <stop id="stop3300" stop-color="#656565" offset="1"/>
  </linearGradient>
 </defs>
 <metadata id="metadata7018">
  <rdf:RDF>
   <cc:Work rdf:about="">
    <dc:format>image/svg+xml</dc:format>
    <dc:type rdf:resource="http://purl.org/dc/dcmitype/StillImage"/>
    <dc:title/>
   </cc:Work>
  </rdf:RDF>
 </metadata>
 <g id="layer1" transform="translate(-195.4375,-505.59375)">
  <text id="text8039" style="writing-mode:lr-tb;text-anchor:start;text-align:start;" font-family="Arial" xml:space="preserve" transform="scale(0.70710677,1.4142136)" font-stretch="normal" line-height="100%" font-size="18.38477707px" font-variant="normal" y="385.98853" x="477.15518" font-weight="normal" font-style="normal" fill="#000000"><tspan id="tspan8041" y="385.98853" x="477.15518">^</tspan></text>
  <rect id="rect7387" fill-rule="evenodd" rx="4.7705" ry="4.0115" height="52.044" width="356.4" y="506.34" x="196.55" fill="#656565"/>
  <rect id="rect7389" fill-rule="evenodd" height="36.332" width="11.279" y="509.72" x="542.39" fill="#d6d6d6"/>
  <path id="path7391" fill-rule="evenodd" fill="url(#linearGradient7409)" d="m544.55,513.5,9.0939-2.9715c-0.36125-2.8568-2.3291-3.8457-5.0687-3.9372-3.6454,0.10572-7.2028,0.26014-9.0939,1.3372l5.0687,5.5715z"/>
  <rect id="rect7393" fill-rule="evenodd" rx="0" ry="0" height="12.975" width="344.01" y="545.4" x="204.21" fill="#929292"/>
  <path id="path7395" fill-rule="evenodd" fill="url(#linearGradient7411)" d="m542.85,541.64,10.805,1.1556,0.0395,10.506c-0.006,2.7094-2.1668,4.2661-4.4011,4.3599l-4.8096-0.0525-5.3235-12.344,3.6895-3.6245z"/>
  <path id="path7397" fill-rule="evenodd" fill="url(#linearGradient7413)" d="m204.07,542.25-7.4845,1.2607-0.0395,10.506c0.006,2.7094,2.1668,4.2661,4.4011,4.3599l4.8096-0.0525,1.6866-12.292-3.3733-3.782z"/>
  <rect id="rect7399" fill-rule="evenodd" rx="4.7705" ry="4.7543" height="40.245" width="324.07" y="507" x="220.1" fill="#f1f1f1"/>
  <rect id="rect7401" fill-rule="evenodd" rx="4.7705" ry="4.7543" height="40.245" width="339.37" y="507" x="203.32" fill="url(#linearGradient7415)"/>
 </g>
</svg>
