<?xml version="1.0" encoding="UTF-8" standalone="no"?>
<!-- Created with Inkscape (http://www.inkscape.org/) -->
<svg id="svg11232" xmlns:rdf="http://www.w3.org/1999/02/22-rdf-syntax-ns#" xmlns="http://www.w3.org/2000/svg" height="53.531" width="64.812" version="1.1" xmlns:cc="http://creativecommons.org/ns#" xmlns:dc="http://purl.org/dc/elements/1.1/">
 <defs id="defs11234">
  <linearGradient id="linearGradient7559" x1="275.73" gradientUnits="userSpaceOnUse" x2="352.27" gradientTransform="matrix(0.2688275,0,0,0.2080024,290.25699,408.1626)" y1="571.91" y2="571.91">
   <stop id="stop3250" stop-color="#d8d8d8" offset="0"/>
   <stop id="stop3252" stop-color="#b1b1b1" offset="1"/>
  </linearGradient>
  <linearGradient id="linearGradient7557" x1="332.92" gradientUnits="userSpaceOnUse" x2="355.82" gradientTransform="matrix(0.2087115,0,0,0.2080024,276.98272,440.92404)" y1="520.33" y2="535.99">
   <stop id="stop3264" stop-color="#656565" offset="0"/>
   <stop id="stop3266" stop-color="#939393" offset="1"/>
  </linearGradient>
  <linearGradient id="linearGradient7555" x1="338.63" gradientUnits="userSpaceOnUse" x2="358.68" gradientTransform="matrix(-0.2087115,0,0,0.2080024,473.41839,440.92404)" y1="522.48" y2="538.13">
   <stop id="stop3278" stop-color="#d6d6d6" offset="0"/>
   <stop id="stop3280" stop-color="#939393" offset="1"/>
  </linearGradient>
  <linearGradient id="linearGradient7553" x1="529.11" gradientUnits="userSpaceOnUse" x2="526.08" gradientTransform="matrix(0.2087115,0,0,0.2080024,288.53322,441.91389)" y1="333.99" y2="321.37">
   <stop id="stop3298" stop-color="#d6d6d6" offset="0"/>
   <stop id="stop3300" stop-color="#656565" offset="1"/>
  </linearGradient>
 </defs>
 <metadata id="metadata11237">
  <rdf:RDF>
   <cc:Work rdf:about="">
    <dc:format>image/svg+xml</dc:format>
    <dc:type rdf:resource="http://purl.org/dc/dcmitype/StillImage"/>
    <dc:title/>
   </cc:Work>
  </rdf:RDF>
 </metadata>
 <g id="layer1" transform="translate(-342.59375,-505.59375)">
  <rect id="rect7531" fill-rule="evenodd" rx="4.7705" ry="4.0115" height="52.044" width="61.714" y="506.34" x="343.69" fill="#656565"/>
  <rect id="rect7533" fill-rule="evenodd" height="36.332" width="11.279" y="510.44" x="395.42" fill="#d6d6d6"/>
  <path id="path7535" fill-rule="evenodd" fill="url(#linearGradient7553)" d="m397.59,514.21,9.0939-2.9715c-0.36125-2.8568-2.3291-3.8457-5.0687-3.9372-3.6454,0.10572-7.2028,0.26014-9.0939,1.3372l5.0687,5.5715z"/>
  <rect id="rect7537" fill-rule="evenodd" rx="0" ry="0" height="12.975" width="51.684" y="545.4" x="351.35" fill="#929292"/>
  <path id="path7539" fill-rule="evenodd" fill="url(#linearGradient7555)" d="m395.89,542.35,10.805,1.1556,0.0395,10.506c-0.006,2.7094-2.1668,4.2661-4.4011,4.3599l-4.8096-0.0525-5.3235-12.344,3.6895-3.6245z"/>
  <path id="path7541" fill-rule="evenodd" fill="url(#linearGradient7557)" d="m351.2,542.25-7.4845,1.2607-0.0395,10.506c0.006,2.7094,2.1668,4.2661,4.4011,4.3599l4.8096-0.0525,1.6866-12.292-3.3733-3.782z"/>
  <rect id="rect7543" fill-rule="evenodd" rx="4.7705" ry="4.7543" height="40.245" width="30.222" y="507" x="367.25" fill="#f1f1f1"/>
  <rect id="rect7545" fill-rule="evenodd" rx="4.7705" ry="4.7543" height="40.245" width="45.701" y="507" x="350.46" fill="url(#linearGradient7559)"/>
  <path id="path7791" d="m357.13,534.84,0-0.86434c0-0.73545,0.091-1.3155,0.27295-1.7401,0.18954-0.43216,0.57623-0.95911,1.16-1.5808l1.5012-1.5808c0.47766-0.50799,0.71649-0.8378,0.7165-0.98945-0.00001-0.16679-0.29191-0.54589-0.87572-1.1373l-1.5012-1.5467c-0.508-0.51556-0.84918-0.99323-1.0236-1.433-0.1668-0.43974-0.2502-1.0463-0.2502-1.8197v-0.93258c0-0.64445,0.4208-1.1259,1.2624-1.4444,0.84159-0.32601,2.104-0.48903,3.7872-0.48904,3.3664,0.00001,5.0496,0.64448,5.0496,1.9334v0.93258c-0.00002,0.77337-0.0872,1.3799-0.26158,1.8197-0.16682,0.43976-0.50421,0.91743-1.0122,1.433l-1.5012,1.5467c-0.57623,0.5914-0.86435,0.9705-0.86433,1.1373-0.00002,0.15165,0.23503,0.48146,0.70512,0.98945l1.5012,1.5808c0.5838,0.62173,0.96669,1.1487,1.1487,1.5808,0.18954,0.4246,0.28431,1.0046,0.28433,1.7401v0.86434c-0.00002,0.69754-0.4284,1.2245-1.2852,1.5808-0.85677,0.35636-2.1116,0.53453-3.7644,0.53453-1.6529,0-2.9077-0.17817-3.7644-0.53453-0.85676-0.35635-1.2851-0.88329-1.2851-1.5808m5.0496-12.897c1.0463,0.00001,2.013-0.11751,2.9001-0.35256,0.88708-0.23503,1.323-0.48903,1.3079-0.76199-0.0152-0.28052-0.4246-0.51556-1.2283-0.70512-0.79611-0.18954-1.7894-0.28431-2.9797-0.28433-1.198,0.00002-2.1988,0.0986-3.0025,0.2957-0.80368,0.18956-1.2055,0.42839-1.2055,0.71649,0,0.26539,0.44355,0.51559,1.3306,0.75062,0.89467,0.22747,1.8538,0.3412,2.8774,0.34119m-4.4923-0.43218,0,1.0918c0,0.52316,0.0758,0.9288,0.22746,1.2169,0.15164,0.28054,0.54211,0.75821,1.1714,1.433l1.2851,1.3648c0.64446,0.70514,0.9667,1.2018,0.9667,1.4899,0,0.2957-0.2957,0.76199-0.88709,1.3989l-1.4785,1.5808c-0.57623,0.61414-0.93637,1.0728-1.0804,1.3761-0.13648,0.30329-0.20472,0.76199-0.20472,1.3761v0.81885c0,0.49283,0.17818,0.83402,0.53453,1.0236,0.87192,0.47767,2.1912,0.7165,3.9578,0.7165,1.7742,0,3.0934-0.23883,3.9578-0.7165,0.35634-0.18954,0.53452-0.53073,0.53453-1.0236v-0.81885c-0.00001-0.61414-0.072-1.0728-0.21609-1.3761-0.13648-0.30327-0.49283-0.76198-1.069-1.3761l-1.4785-1.5808c-0.59139-0.63688-0.88709-1.1183-0.88708-1.4444-0.00001-0.25778,0.32601-0.73923,0.97807-1.4444l1.2738-1.3648c0.62929-0.67478,1.0198-1.1524,1.1714-1.433,0.15163-0.2881,0.22745-0.69374,0.22746-1.2169v-1.0918c-1.0387,0.65965-2.5362,0.98946-4.4923,0.98945-0.97808,0.00001-1.8424-0.0834-2.593-0.2502-0.74304-0.16679-1.3761-0.41321-1.8993-0.73925m1.2055,2.2518c1.1221,0.71271,2.2177,1.0691,3.2868,1.069,1.069,0.00001,2.1684-0.35634,3.2982-1.069-0.18956,0.30329-0.60657,0.8037-1.251,1.5012l-0.94395,1.0349c-0.4246,0.46251-0.68239,0.78475-0.77336,0.9667-0.091,0.1744-0.16682,0.51179-0.22747,1.0122-0.0152,0.15165-0.0493,0.3791-0.10235,0.68238-0.0531-0.30328-0.0872-0.53073-0.10235-0.68238-0.0607-0.5004-0.13649-0.83779-0.22747-1.0122-0.091-0.18195-0.34877-0.50419-0.77336-0.9667l-0.94395-1.0349c-0.64447-0.69752-1.0577-1.1979-1.2396-1.5012m-0.63688,11.111c0.12131-0.45492,0.57623-0.88709,1.3648-1.2965l1.0008-0.51178c0.62929-0.32602,1.0046-0.5459,1.1259-0.65963,0.12888-0.11373,0.27294-0.36772,0.43217-0.76199,0.16679,0.39427,0.31085,0.64826,0.43217,0.76199,0.12131,0.11373,0.49661,0.33361,1.1259,0.65963l1.0008,0.51178c0.78851,0.40943,1.2434,0.8416,1.3648,1.2965-0.96291,0.48524-2.2708,0.72787-3.9237,0.72787s-2.9608-0.24263-3.9237-0.72787" fill="#000"/>
 </g>
</svg>
