<?xml version="1.0" encoding="UTF-8" standalone="no"?>
<!-- Created with Inkscape (http://www.inkscape.org/) -->
<svg id="svg6868" xmlns:rdf="http://www.w3.org/1999/02/22-rdf-syntax-ns#" xmlns="http://www.w3.org/2000/svg" height="53.562" width="80.312" version="1.1" xmlns:cc="http://creativecommons.org/ns#" xmlns:dc="http://purl.org/dc/elements/1.1/">
 <defs id="defs6870">
  <linearGradient id="linearGradient7074" x1="275.73" gradientUnits="userSpaceOnUse" y1="571.91" gradientTransform="matrix(0.3683753,0,0,0.2080024,127.72251,445.30545)" x2="352.27" y2="571.91">
   <stop id="stop3250" stop-color="#d8d8d8" offset="0"/>
   <stop id="stop3252" stop-color="#b1b1b1" offset="1"/>
  </linearGradient>
  <linearGradient id="linearGradient7072" x1="332.92" gradientUnits="userSpaceOnUse" y1="520.33" gradientTransform="matrix(0.2087115,0,0,0.2080024,136.749,478.06689)" x2="355.82" y2="535.99">
   <stop id="stop3264" stop-color="#656565" offset="0"/>
   <stop id="stop3266" stop-color="#939393" offset="1"/>
  </linearGradient>
  <linearGradient id="linearGradient7070" x1="338.63" gradientUnits="userSpaceOnUse" y1="522.48" gradientTransform="matrix(-0.2087115,0,0,0.2080024,349.13417,478.06689)" x2="358.68" y2="538.13">
   <stop id="stop3278" stop-color="#d6d6d6" offset="0"/>
   <stop id="stop3280" stop-color="#939393" offset="1"/>
  </linearGradient>
  <linearGradient id="linearGradient7068" x1="529.11" gradientUnits="userSpaceOnUse" y1="333.99" gradientTransform="matrix(0.2087115,0,0,0.2080024,164.249,478.06689)" x2="526.08" y2="321.37">
   <stop id="stop3298" stop-color="#d6d6d6" offset="0"/>
   <stop id="stop3300" stop-color="#656565" offset="1"/>
  </linearGradient>
 </defs>
 <metadata id="metadata6873">
  <rdf:RDF>
   <cc:Work rdf:about="">
    <dc:format>image/svg+xml</dc:format>
    <dc:type rdf:resource="http://purl.org/dc/dcmitype/StillImage"/>
    <dc:title/>
   </cc:Work>
  </rdf:RDF>
 </metadata>
 <g id="layer1" transform="translate(-202.6875,-542.71875)">
  <rect id="rect7046" fill-rule="evenodd" rx="4.7705" ry="4.0115" height="52.044" width="78.459" y="543.48" x="203.45" fill="#656565"/>
  <rect id="rect7048" fill-rule="evenodd" height="34.564" width="11.279" y="547.35" x="271.14" fill="#d6d6d6"/>
  <path id="path7050" fill-rule="evenodd" fill="url(#linearGradient7068)" d="m273.3,550.36,9.0939-2.9715c-0.36125-2.8568-2.3291-3.8457-5.0687-3.9372-3.6454,0.10572-7.2028,0.26014-9.0939,1.3372l5.0687,5.5715z"/>
  <rect id="rect7052" fill-rule="evenodd" rx="0" ry="0" height="12.975" width="63.112" y="582.54" x="212.54" fill="#929292"/>
  <path id="path7054" fill-rule="evenodd" fill="url(#linearGradient7070)" d="m271.6,579.49,10.805,1.1556,0.0395,10.506c-0.006,2.7094-2.1668,4.2661-4.4011,4.3599l-4.8096-0.0525-5.3235-12.344,3.6895-3.6245z"/>
  <path id="path7056" fill-rule="evenodd" fill="url(#linearGradient7072)" d="m210.96,579.39-7.4845,1.2607-0.0395,10.506c0.006,2.7094,2.1668,4.2661,4.4011,4.3599l4.8096-0.0525,1.6866-12.292-3.3733-3.782z"/>
  <rect id="rect7058" fill-rule="evenodd" rx="4.7705" ry="4.7543" height="40.245" width="63.678" y="544.14" x="210.22" fill="#f1f1f1"/>
  <rect id="rect7060" fill-rule="evenodd" rx="4.7705" ry="4.7543" height="40.245" width="62.624" y="544.14" x="210.22" fill="url(#linearGradient7074)"/>
  <text id="tab" style="writing-mode:lr-tb;text-anchor:start;text-align:start;" font-family="Arial" xml:space="preserve" font-size="10px" font-style="normal" font-stretch="normal" line-height="100%" font-variant="normal" y="569.53497" x="239.02156" font-weight="normal" fill="#000000"><tspan id="tspan4555" y="569.53497" x="239.02156">Tab</tspan></text>
  <g id="g8160" transform="translate(321.13361,-586.46632)">
   <path id="path8154" d="m-88.132,1140.2-17.678,0" stroke-dashoffset="0" stroke="#000" stroke-miterlimit="4" stroke-dasharray="none" stroke-width="1" fill="none"/>
   <path id="path8156" d="m-105.62,1135.8,0,8.6494" stroke-dashoffset="0" stroke="#000" stroke-miterlimit="4" stroke-dasharray="none" stroke-width="1" fill="none"/>
   <path id="path8158" fill-rule="evenodd" fill="#000" transform="translate(-244.39009,23.287744)" d="m138.45,1116.9,5.7776-3.3357,0,6.6713z"/>
  </g>
  <g id="g8169" transform="matrix(-1,0,0,1,127.19171,-568.03102)">
   <path id="path8171" d="m-88.132,1140.2-17.678,0" stroke-dashoffset="0" stroke="#000" stroke-miterlimit="4" stroke-dasharray="none" stroke-width="1" fill="none"/>
   <path id="path8173" d="m-105.62,1135.8,0,8.6494" stroke-dashoffset="0" stroke="#000" stroke-miterlimit="4" stroke-dasharray="none" stroke-width="1" fill="none"/>
   <path id="path8175" d="m138.45,1116.9,5.7776-3.3357,0,6.6713z" transform="translate(-244.39009,23.287744)" fill="#000" fill-rule="evenodd"/>
  </g>
 </g>
</svg>
