<?xml version="1.0" encoding="utf-8"?>
<!-- Generator: Adobe Illustrator 26.0.2, SVG Export Plug-In . SVG Version: 6.00 Build 0)  -->
<svg version="1.1"
	 id="svg6909" xmlns:cc="http://creativecommons.org/ns#" xmlns:dc="http://purl.org/dc/elements/1.1/" xmlns:rdf="http://www.w3.org/1999/02/22-rdf-syntax-ns#"
	 xmlns="http://www.w3.org/2000/svg" xmlns:xlink="http://www.w3.org/1999/xlink" x="0px" y="0px" viewBox="0 0 64.8 53.5"
	 style="enable-background:new 0 0 64.8 53.5;" xml:space="preserve">
<style type="text/css">
	.st0{fill-rule:evenodd;clip-rule:evenodd;fill:#656565;}
	.st1{fill-rule:evenodd;clip-rule:evenodd;fill:#D6D6D6;}
	.st2{fill-rule:evenodd;clip-rule:evenodd;fill:url(#path7361_00000097494709906038973730000015564626424830371456_);}
	.st3{fill-rule:evenodd;clip-rule:evenodd;fill:#929292;}
	.st4{fill-rule:evenodd;clip-rule:evenodd;fill:url(#path7365_00000026131539017822435470000007544114890499893415_);}
	.st5{fill-rule:evenodd;clip-rule:evenodd;fill:url(#path7367_00000002383077351080419060000002635461681285897613_);}
	.st6{fill-rule:evenodd;clip-rule:evenodd;fill:#F1F1F1;}
	.st7{fill-rule:evenodd;clip-rule:evenodd;fill:url(#rect7371_00000016061460884772475590000012219419901677570995_);}
</style>
<g id="layer1" transform="translate(-342.59375,-505.59375)">
	<path id="rect7357" class="st0" d="M348.5,506.3h52.2c2.6,0,4.8,1.8,4.8,4v44c0,2.2-2.1,4-4.8,4h-52.2c-2.6,0-4.8-1.8-4.8-4v-44
		C343.7,508.1,345.8,506.3,348.5,506.3z"/>
	<rect id="rect7359" x="395.4" y="510.4" class="st1" width="11.3" height="36.3"/>
	
		<linearGradient id="path7361_00000045579350640594741580000013186338746833713068_" gradientUnits="userSpaceOnUse" x1="4760.563" y1="4869.77" x2="4757.1699" y2="4855.6387" gradientTransform="matrix(0.2087 0 0 0.208 -593.5381 -502.0836)">
		<stop  offset="0" style="stop-color:#D6D6D6"/>
		<stop  offset="1" style="stop-color:#656565"/>
	</linearGradient>
	
		<path id="path7361" style="fill-rule:evenodd;clip-rule:evenodd;fill:url(#path7361_00000045579350640594741580000013186338746833713068_);" d="
		M397.6,514.2l9.1-3.4c-0.4-3.3-2.3-4.3-5.1-4.4c-3.6,0.1-7.2,0.3-9.1,1.5L397.6,514.2z"/>
	<rect id="rect7363" x="351.4" y="545.4" class="st3" width="51.7" height="13"/>
	
		<linearGradient id="path7365_00000115481065239820853860000018251338977971511683_" gradientUnits="userSpaceOnUse" x1="-4381.9082" y1="5056.4639" x2="-4361.8579" y2="5072.1138" gradientTransform="matrix(-0.2087 0 0 0.208 -512.5102 -503.0735)">
		<stop  offset="0" style="stop-color:#D6D6D6"/>
		<stop  offset="1" style="stop-color:#939393"/>
	</linearGradient>
	
		<path id="path7365" style="fill-rule:evenodd;clip-rule:evenodd;fill:url(#path7365_00000115481065239820853860000018251338977971511683_);" d="
		M395.9,542.3l10.8,1.2V554c0,2.7-2.2,4.3-4.4,4.4l-4.8-0.1l-5.3-12.3L395.9,542.3L395.9,542.3z"/>
	
		<linearGradient id="path7367_00000109749833645059071820000000396955429821047424_" gradientUnits="userSpaceOnUse" x1="4563.2783" y1="5057.0708" x2="4585.355" y2="5072.168" gradientTransform="matrix(0.2087 0 0 0.208 -605.7958 -503.0735)">
		<stop  offset="0" style="stop-color:#656565"/>
		<stop  offset="1" style="stop-color:#939393"/>
	</linearGradient>
	
		<path id="path7367" style="fill-rule:evenodd;clip-rule:evenodd;fill:url(#path7367_00000109749833645059071820000000396955429821047424_);" d="
		M350.8,542.2l-6.9,1.3V554c0,2.7,2,4.3,4.1,4.4l4.4-0.1l1.6-12.3L350.8,542.2L350.8,542.2z"/>
	<path id="rect7369" class="st6" d="M372,507h20.7c2.6,0,4.8,2.1,4.8,4.8v30.7c0,2.6-2.1,4.8-4.8,4.8H372c-2.6,0-4.8-2.1-4.8-4.8
		v-30.7C367.2,509.1,369.4,507,372,507z"/>
	
		<linearGradient id="rect7371_00000088825186524363293460000014103183225199601327_" gradientUnits="userSpaceOnUse" x1="3501.4421" y1="5110.5044" x2="3577.9822" y2="5110.5044" gradientTransform="matrix(0.2688 0 0 0.208 -576.8587 -535.8349)">
		<stop  offset="0" style="stop-color:#D8D8D8"/>
		<stop  offset="1" style="stop-color:#B1B1B1"/>
	</linearGradient>
	
		<path id="rect7371" style="fill-rule:evenodd;clip-rule:evenodd;fill:url(#rect7371_00000088825186524363293460000014103183225199601327_);" d="
		M355.2,507h36.2c2.6,0,4.8,2.1,4.8,4.8v30.7c0,2.6-2.1,4.8-4.8,4.8h-36.2c-2.6,0-4.8-2.1-4.8-4.8v-30.7
		C350.5,509.1,352.6,507,355.2,507z"/>
	<g>
		<polygon points="361.3,534.7 361.3,530 355.5,531 355.5,534.9 		"/>
		<polygon points="362.3,534.6 370.2,534.3 370.2,528.4 362.3,529.8 		"/>
		<polygon points="361.3,536 355.5,536.3 355.4,540.6 361.3,541.2 		"/>
		<polygon points="362.3,535.9 362.3,541.3 370.2,542 370.2,535.4 		"/>
	</g>
</g>
</svg>
